<svg xmlns="http://www.w3.org/2000/svg" xmlns:xlink="http://www.w3.org/1999/xlink" width="1080" zoomAndPan="magnify" viewBox="0 0 810 809.999993" height="1080" preserveAspectRatio="xMidYMid meet" version="1.0"><path fill="#00892c" d="M 135.671875 368.421875 C 135.132812 368.414062 134.257812 369.089844 133.109375 370.492188 C 131.800781 372.09375 130.136719 374.640625 128.3125 378.066406 C 126.492188 381.496094 124.519531 385.808594 122.644531 391.039062 C 120.769531 396.269531 119 402.425781 117.628906 409.351562 C 116.375 415.699219 115.476562 422.691406 115.011719 430.222656 C 114.546875 437.753906 114.539062 445.828125 115.066406 454.253906 C 115.855469 466.699219 117.671875 479.925781 120.519531 493.601562 C 123.367188 507.277344 127.230469 521.394531 131.636719 535.675781 C 132.535156 538.585938 133.445312 541.433594 134.363281 544.285156 C 134.722656 545.40625 135.09375 546.496094 135.453125 547.609375 L 153.660156 547.609375 C 152.746094 544.746094 151.847656 541.953125 150.9375 539.054688 C 150.054688 536.230469 149.195312 533.410156 148.320312 530.550781 C 144.015625 516.535156 140.132812 502.894531 137.035156 489.898438 C 133.941406 476.898438 131.648438 464.535156 130.277344 452.894531 C 129.34375 445.035156 128.789062 437.507812 128.640625 430.492188 C 128.492188 423.480469 128.746094 416.96875 129.242188 410.984375 C 130.3125 397.957031 132.636719 387.527344 134.308594 380.300781 C 135.148438 376.6875 135.789062 373.851562 136.109375 371.851562 C 136.425781 369.855469 136.398438 368.71875 135.890625 368.472656 C 135.828125 368.445312 135.75 368.421875 135.671875 368.421875 Z M 135.671875 368.421875 " fill-opacity="1" fill-rule="evenodd"/><path fill="#00892c" d="M 47.496094 369.660156 C 47.296875 369.621094 47.035156 369.695312 46.84375 369.988281 C 46.652344 370.277344 46.5625 370.835938 46.515625 371.226562 C 46.417969 371.917969 46.410156 372.808594 46.515625 373.839844 C 46.726562 375.875 47.335938 378.609375 48.214844 381.871094 C 49.960938 388.355469 52.90625 397.269531 56.445312 408.121094 C 63.433594 429.542969 72.921875 458.964844 80.285156 493.667969 C 83.863281 510.535156 86.851562 528.675781 88.90625 547.605469 L 110.007812 547.605469 C 107.769531 526.925781 104 507.222656 99.425781 489.160156 C 94.898438 471.277344 89.582031 454.984375 84.140625 440.578125 C 78.699219 426.167969 73.148438 413.65625 68.070312 403.355469 C 62.90625 392.875 58.296875 384.753906 54.746094 379.0625 C 52.945312 376.167969 51.46875 373.964844 50.304688 372.402344 C 49.710938 371.59375 49.210938 371.015625 48.804688 370.574219 C 48.539062 370.164062 48.226562 370.109375 48.019531 369.984375 C 47.8125 369.863281 47.695312 369.699219 47.496094 369.660156 Z M 47.496094 369.660156 " fill-opacity="1" fill-rule="evenodd"/><path fill="#00892c" d="M 9.15625 404.226562 C 8.046875 404.597656 8.433594 409.101562 9.863281 416.921875 C 11.296875 424.746094 13.753906 435.925781 16.625 449.730469 C 19.492188 463.535156 22.757812 479.929688 25.234375 498.230469 C 27.308594 513.527344 28.820312 530.164062 29.050781 547.605469 L 46.332031 547.605469 C 45.855469 529.082031 43.75 511.585938 40.824219 495.722656 C 37.351562 476.863281 32.800781 460.25 28.34375 446.566406 C 23.886719 432.882812 19.535156 422.164062 16.132812 414.902344 C 12.730469 407.644531 10.265625 403.847656 9.15625 404.222656 Z M 9.15625 404.226562 " fill-opacity="1" fill-rule="evenodd"/><path fill="#00892c" d="M 184.042969 407.730469 C 182.753906 407.730469 181.542969 411.351562 180.363281 417.777344 C 179.183594 424.199219 178.007812 433.445312 176.859375 444.933594 C 175.707031 456.421875 174.617188 470.117188 173.761719 485.410156 C 172.90625 500.699219 172.316406 517.589844 172.652344 535.402344 C 172.660156 535.996094 172.695312 536.566406 172.710938 537.15625 C 172.773438 540.230469 172.878906 543.296875 173 546.324219 L 191.695312 546.324219 C 191.597656 543.160156 191.476562 539.976562 191.402344 536.746094 C 191.390625 536.171875 191.355469 535.628906 191.34375 535.050781 C 191.007812 517.6875 191.027344 501.023438 190.9375 485.816406 C 190.84375 470.613281 190.660156 456.871094 190.117188 445.285156 C 189.578125 433.703125 188.722656 424.320312 187.664062 417.835938 C 186.609375 411.347656 185.332031 407.730469 184.042969 407.730469 Z M 184.042969 407.730469 " fill-opacity="1" fill-rule="evenodd"/><path fill="#00892c" d="M 201.191406 422.152344 C 200.042969 422.507812 200.132812 426.394531 200.917969 433.105469 C 201.703125 439.816406 203.1875 449.371094 204.734375 461.171875 C 206.277344 472.972656 207.839844 487.050781 209.09375 502.753906 C 210.199219 516.589844 211.03125 531.734375 211.65625 547.605469 L 229.101562 547.605469 C 228.382812 531.148438 227.03125 515.375 225.066406 501.011719 C 222.867188 484.949219 219.945312 470.613281 216.78125 458.773438 C 213.617188 446.933594 210.222656 437.589844 207.40625 431.308594 C 204.585938 425.027344 202.335938 421.796875 201.191406 422.152344 Z M 201.191406 422.152344 " fill-opacity="1" fill-rule="evenodd"/><path fill="#00892c" d="M -304.199219 524.921875 L 810.121094 524.921875 L 810.121094 547.613281 L -304.199219 547.613281 Z M -304.199219 524.921875 " fill-opacity="1" fill-rule="nonzero"/><path fill="#00892c" d="M 135.671875 368.421875 C 135.132812 368.414062 134.257812 369.089844 133.109375 370.492188 C 131.800781 372.09375 130.136719 374.640625 128.3125 378.066406 C 126.492188 381.496094 124.519531 385.808594 122.644531 391.039062 C 120.769531 396.269531 119 402.425781 117.628906 409.351562 C 116.375 415.699219 115.476562 422.691406 115.011719 430.222656 C 114.546875 437.753906 114.539062 445.828125 115.066406 454.253906 C 115.855469 466.699219 117.671875 479.925781 120.519531 493.601562 C 123.367188 507.277344 127.230469 521.394531 131.636719 535.675781 C 132.535156 538.585938 133.445312 541.433594 134.363281 544.285156 C 134.722656 545.40625 135.09375 546.496094 135.453125 547.609375 L 153.660156 547.609375 C 152.746094 544.746094 151.847656 541.953125 150.9375 539.054688 C 150.054688 536.230469 149.195312 533.410156 148.320312 530.550781 C 144.015625 516.535156 140.132812 502.894531 137.035156 489.898438 C 133.941406 476.898438 131.648438 464.535156 130.277344 452.894531 C 129.34375 445.035156 128.789062 437.507812 128.640625 430.492188 C 128.492188 423.480469 128.746094 416.96875 129.242188 410.984375 C 130.3125 397.957031 132.636719 387.527344 134.308594 380.300781 C 135.148438 376.6875 135.789062 373.851562 136.109375 371.851562 C 136.425781 369.855469 136.398438 368.71875 135.890625 368.472656 C 135.828125 368.445312 135.75 368.421875 135.671875 368.421875 Z M 135.671875 368.421875 " fill-opacity="1" fill-rule="evenodd"/><path fill="#00892c" d="M 47.496094 369.660156 C 47.296875 369.621094 47.035156 369.695312 46.84375 369.988281 C 46.652344 370.277344 46.5625 370.835938 46.515625 371.226562 C 46.417969 371.917969 46.410156 372.808594 46.515625 373.839844 C 46.726562 375.875 47.335938 378.609375 48.214844 381.871094 C 49.960938 388.355469 52.90625 397.269531 56.445312 408.121094 C 63.433594 429.542969 72.921875 458.964844 80.285156 493.667969 C 83.863281 510.535156 86.851562 528.675781 88.90625 547.605469 L 110.007812 547.605469 C 107.769531 526.925781 104 507.222656 99.425781 489.160156 C 94.898438 471.277344 89.582031 454.984375 84.140625 440.578125 C 78.699219 426.167969 73.148438 413.65625 68.070312 403.355469 C 62.90625 392.875 58.296875 384.753906 54.746094 379.0625 C 52.945312 376.167969 51.46875 373.964844 50.304688 372.402344 C 49.710938 371.59375 49.210938 371.015625 48.804688 370.574219 C 48.539062 370.164062 48.226562 370.109375 48.019531 369.984375 C 47.8125 369.863281 47.695312 369.699219 47.496094 369.660156 Z M 47.496094 369.660156 " fill-opacity="1" fill-rule="evenodd"/><path fill="#00892c" d="M 9.15625 404.226562 C 8.046875 404.597656 8.433594 409.101562 9.863281 416.921875 C 11.296875 424.746094 13.753906 435.925781 16.625 449.730469 C 19.492188 463.535156 22.757812 479.929688 25.234375 498.230469 C 27.308594 513.527344 28.820312 530.164062 29.050781 547.605469 L 46.332031 547.605469 C 45.855469 529.082031 43.75 511.585938 40.824219 495.722656 C 37.351562 476.863281 32.800781 460.25 28.34375 446.566406 C 23.886719 432.882812 19.535156 422.164062 16.132812 414.902344 C 12.730469 407.644531 10.265625 403.847656 9.15625 404.222656 Z M 9.15625 404.226562 " fill-opacity="1" fill-rule="evenodd"/><path fill="#00892c" d="M 184.042969 407.730469 C 182.753906 407.730469 181.542969 411.351562 180.363281 417.777344 C 179.183594 424.199219 178.007812 433.445312 176.859375 444.933594 C 175.707031 456.421875 174.617188 470.117188 173.761719 485.410156 C 172.90625 500.699219 172.316406 517.589844 172.652344 535.402344 C 172.660156 535.996094 172.695312 536.566406 172.710938 537.15625 C 172.773438 540.230469 172.878906 543.296875 173 546.324219 L 191.695312 546.324219 C 191.597656 543.160156 191.476562 539.976562 191.402344 536.746094 C 191.390625 536.171875 191.355469 535.628906 191.34375 535.050781 C 191.007812 517.6875 191.027344 501.023438 190.9375 485.816406 C 190.84375 470.613281 190.660156 456.871094 190.117188 445.285156 C 189.578125 433.703125 188.722656 424.320312 187.664062 417.835938 C 186.609375 411.347656 185.332031 407.730469 184.042969 407.730469 Z M 184.042969 407.730469 " fill-opacity="1" fill-rule="evenodd"/><path fill="#00892c" d="M 201.191406 422.152344 C 200.042969 422.507812 200.132812 426.394531 200.917969 433.105469 C 201.703125 439.816406 203.1875 449.371094 204.734375 461.171875 C 206.277344 472.972656 207.839844 487.050781 209.09375 502.753906 C 210.199219 516.589844 211.03125 531.734375 211.65625 547.605469 L 229.101562 547.605469 C 228.382812 531.148438 227.03125 515.375 225.066406 501.011719 C 222.867188 484.949219 219.945312 470.613281 216.78125 458.773438 C 213.617188 446.933594 210.222656 437.589844 207.40625 431.308594 C 204.585938 425.027344 202.335938 421.796875 201.191406 422.152344 Z M 201.191406 422.152344 " fill-opacity="1" fill-rule="evenodd"/><path fill="#00892c" d="M 161.070312 346.152344 C 160.515625 346.144531 159.617188 346.839844 158.4375 348.277344 C 157.09375 349.921875 155.386719 352.539062 153.511719 356.058594 C 151.640625 359.578125 149.617188 364.007812 147.691406 369.378906 C 145.765625 374.75 143.949219 381.074219 142.539062 388.183594 C 141.253906 394.703125 140.332031 401.882812 139.855469 409.617188 C 139.375 417.351562 139.367188 425.644531 139.910156 434.300781 C 140.71875 447.078125 142.582031 460.660156 145.507812 474.707031 C 148.429688 488.753906 152.402344 503.25 156.925781 517.914062 C 157.851562 520.902344 158.785156 523.828125 159.726562 526.757812 C 160.09375 527.910156 160.476562 529.027344 160.847656 530.171875 L 179.542969 530.171875 C 178.601562 527.230469 177.679688 524.363281 176.746094 521.382812 C 175.839844 518.484375 174.957031 515.585938 174.058594 512.652344 C 169.636719 498.257812 165.648438 484.25 162.46875 470.902344 C 159.289062 457.550781 156.9375 444.855469 155.527344 432.898438 C 154.570312 424.828125 154 417.097656 153.847656 409.898438 C 153.695312 402.695312 153.957031 396.007812 154.464844 389.859375 C 155.566406 376.484375 157.953125 365.773438 159.671875 358.351562 C 160.53125 354.640625 161.191406 351.726562 161.519531 349.675781 C 161.84375 347.628906 161.816406 346.457031 161.292969 346.207031 C 161.230469 346.175781 161.148438 346.152344 161.070312 346.152344 Z M 161.070312 346.152344 " fill-opacity="1" fill-rule="evenodd"/><path fill="#00892c" d="M 70.503906 347.425781 C 70.300781 347.386719 70.027344 347.460938 69.832031 347.761719 C 69.636719 348.058594 69.546875 348.632812 69.496094 349.035156 C 69.398438 349.742188 69.386719 350.660156 69.496094 351.71875 C 69.714844 353.808594 70.339844 356.617188 71.242188 359.964844 C 73.035156 366.625 76.058594 375.777344 79.695312 386.925781 C 86.871094 408.921875 96.613281 439.136719 104.175781 474.777344 C 107.851562 492.101562 110.917969 510.730469 113.03125 530.171875 L 134.699219 530.171875 C 132.398438 508.929688 128.527344 488.699219 123.832031 470.148438 C 119.183594 451.785156 113.722656 435.054688 108.136719 420.257812 C 102.546875 405.460938 96.847656 392.609375 91.632812 382.03125 C 86.328125 371.269531 81.59375 362.929688 77.949219 357.085938 C 76.101562 354.113281 74.582031 351.851562 73.386719 350.246094 C 72.777344 349.414062 72.265625 348.820312 71.84375 348.367188 C 71.574219 347.949219 71.25 347.890625 71.039062 347.761719 C 70.828125 347.636719 70.707031 347.46875 70.503906 347.429688 Z M 70.503906 347.425781 " fill-opacity="1" fill-rule="evenodd"/><path fill="#00892c" d="M 31.132812 382.914062 C 29.996094 383.296875 30.390625 387.921875 31.863281 395.953125 C 33.332031 403.988281 35.859375 415.46875 38.804688 429.648438 C 41.75 443.824219 45.101562 460.660156 47.648438 479.457031 C 49.773438 495.164062 51.332031 512.246094 51.566406 530.164062 L 69.3125 530.164062 C 68.824219 511.140625 66.660156 493.171875 63.65625 476.882812 C 60.089844 457.515625 55.414062 440.453125 50.839844 426.402344 C 46.261719 412.347656 41.792969 401.339844 38.300781 393.882812 C 34.804688 386.425781 32.273438 382.53125 31.132812 382.914062 Z M 31.132812 382.914062 " fill-opacity="1" fill-rule="evenodd"/><path fill="#00892c" d="M 210.75 386.523438 C 209.425781 386.523438 208.179688 390.246094 206.96875 396.839844 C 205.757812 403.4375 204.550781 412.933594 203.371094 424.730469 C 202.1875 436.527344 201.066406 450.59375 200.191406 466.296875 C 199.3125 482 198.707031 499.347656 199.050781 517.640625 C 199.0625 518.246094 199.097656 518.832031 199.109375 519.4375 C 199.171875 522.597656 199.285156 525.746094 199.410156 528.855469 L 218.609375 528.855469 C 218.507812 525.605469 218.382812 522.335938 218.308594 519.019531 C 218.296875 518.429688 218.261719 517.871094 218.25 517.28125 C 217.902344 499.445312 217.921875 482.332031 217.828125 466.71875 C 217.734375 451.101562 217.542969 436.988281 216.988281 425.089844 C 216.433594 413.195312 215.554688 403.5625 214.46875 396.902344 C 213.386719 390.242188 212.074219 386.523438 210.75 386.523438 Z M 210.75 386.523438 " fill-opacity="1" fill-rule="evenodd"/><path fill="#00892c" d="M 228.347656 401.328125 C 227.171875 401.695312 227.265625 405.6875 228.070312 412.578125 C 228.875 419.472656 230.402344 429.28125 231.988281 441.402344 C 233.574219 453.523438 235.179688 467.976562 236.464844 484.105469 C 237.601562 498.3125 238.457031 513.863281 239.097656 530.164062 L 257.011719 530.164062 C 256.273438 513.261719 254.890625 497.0625 252.871094 482.3125 C 250.609375 465.820312 247.609375 451.097656 244.359375 438.9375 C 241.113281 426.78125 237.628906 417.179688 234.730469 410.730469 C 231.835938 404.28125 229.527344 400.964844 228.351562 401.328125 Z M 228.347656 401.328125 " fill-opacity="1" fill-rule="evenodd"/><path fill="#00892c" d="M 136.527344 376.777344 C 136.046875 376.769531 135.273438 377.367188 134.257812 378.609375 C 133.101562 380.027344 131.625 382.28125 130.011719 385.3125 C 128.398438 388.347656 126.65625 392.167969 124.996094 396.796875 C 123.332031 401.425781 121.769531 406.878906 120.554688 413.003906 C 119.445312 418.625 118.652344 424.816406 118.238281 431.480469 C 117.828125 438.148438 117.820312 445.296875 118.285156 452.757812 C 118.984375 463.769531 120.59375 475.480469 123.113281 487.585938 C 125.632812 499.695312 129.054688 512.191406 132.957031 524.832031 C 133.75 527.40625 134.558594 529.929688 135.367188 532.453125 C 135.6875 533.445312 136.015625 534.410156 136.332031 535.394531 L 152.449219 535.394531 C 151.636719 532.863281 150.84375 530.390625 150.039062 527.820312 C 149.257812 525.324219 148.5 522.824219 147.722656 520.296875 C 143.910156 507.886719 140.472656 495.816406 137.734375 484.308594 C 134.992188 472.796875 132.964844 461.855469 131.75 451.550781 C 130.925781 444.59375 130.433594 437.929688 130.300781 431.722656 C 130.171875 425.515625 130.394531 419.753906 130.832031 414.453125 C 131.78125 402.921875 133.839844 393.691406 135.320312 387.292969 C 136.0625 384.09375 136.632812 381.582031 136.914062 379.816406 C 137.195312 378.046875 137.167969 377.039062 136.71875 376.824219 C 136.664062 376.796875 136.59375 376.777344 136.527344 376.777344 Z M 136.527344 376.777344 " fill-opacity="1" fill-rule="evenodd"/><path fill="#00892c" d="M 58.46875 377.875 C 58.292969 377.839844 58.058594 377.90625 57.890625 378.164062 C 57.722656 378.421875 57.640625 378.917969 57.601562 379.261719 C 57.515625 379.871094 57.507812 380.664062 57.601562 381.574219 C 57.785156 383.375 58.328125 385.796875 59.105469 388.683594 C 60.648438 394.425781 63.253906 402.3125 66.390625 411.921875 C 72.574219 430.882812 80.976562 456.929688 87.492188 487.648438 C 90.660156 502.582031 93.304688 518.640625 95.125 535.394531 L 113.804688 535.394531 C 111.820312 517.089844 108.484375 499.648438 104.4375 483.660156 C 100.429688 467.828125 95.722656 453.40625 90.90625 440.652344 C 86.089844 427.894531 81.179688 416.820312 76.683594 407.703125 C 72.109375 398.425781 68.027344 391.234375 64.886719 386.195312 C 63.292969 383.632812 61.984375 381.6875 60.957031 380.300781 C 60.429688 379.585938 59.988281 379.074219 59.625 378.683594 C 59.390625 378.320312 59.113281 378.269531 58.933594 378.160156 C 58.75 378.054688 58.644531 377.90625 58.46875 377.871094 Z M 58.46875 377.875 " fill-opacity="1" fill-rule="evenodd"/><path fill="#00892c" d="M 24.523438 408.480469 C 23.542969 408.808594 23.882812 412.796875 25.148438 419.71875 C 26.417969 426.644531 28.59375 436.542969 31.132812 448.761719 C 33.671875 460.980469 36.5625 475.496094 38.757812 491.695312 C 40.589844 505.238281 41.933594 519.960938 42.136719 535.40625 L 57.433594 535.40625 C 57.011719 519.007812 55.144531 503.519531 52.558594 489.480469 C 49.480469 472.785156 45.453125 458.078125 41.507812 445.964844 C 37.5625 433.851562 33.710938 424.363281 30.699219 417.9375 C 27.6875 411.511719 25.503906 408.148438 24.523438 408.480469 Z M 24.523438 408.480469 " fill-opacity="1" fill-rule="evenodd"/><path fill="#00892c" d="M 179.351562 411.585938 C 178.210938 411.585938 177.136719 414.792969 176.09375 420.476562 C 175.046875 426.160156 174.007812 434.347656 172.988281 444.519531 C 171.972656 454.6875 171.003906 466.8125 170.25 480.347656 C 169.492188 493.882812 168.96875 508.835938 169.265625 524.601562 C 169.277344 525.125 169.308594 525.632812 169.320312 526.152344 C 169.375 528.875 169.46875 531.589844 169.578125 534.269531 L 186.125 534.269531 C 186.039062 531.46875 185.933594 528.648438 185.867188 525.792969 C 185.855469 525.28125 185.824219 524.804688 185.816406 524.292969 C 185.519531 508.917969 185.535156 494.167969 185.453125 480.707031 C 185.371094 467.25 185.207031 455.082031 184.730469 444.828125 C 184.25 434.570312 183.492188 426.269531 182.558594 420.527344 C 181.621094 414.785156 180.492188 411.582031 179.351562 411.582031 Z M 179.351562 411.585938 " fill-opacity="1" fill-rule="evenodd"/><path fill="#00892c" d="M 194.527344 424.347656 C 193.511719 424.664062 193.589844 428.105469 194.285156 434.046875 C 194.980469 439.988281 196.296875 448.445312 197.664062 458.890625 C 199.03125 469.335938 200.414062 481.796875 201.523438 495.699219 C 202.5 507.945312 203.238281 521.351562 203.792969 535.402344 L 219.234375 535.402344 C 218.597656 520.832031 217.402344 506.871094 215.660156 494.15625 C 213.714844 479.9375 211.128906 467.25 208.328125 456.769531 C 205.527344 446.285156 202.523438 438.011719 200.027344 432.453125 C 197.53125 426.894531 195.542969 424.035156 194.527344 424.347656 Z M 194.527344 424.347656 " fill-opacity="1" fill-rule="evenodd"/><path fill="#00892c" d="M 13.988281 534.304688 C 13.660156 531.296875 13.296875 528.28125 13.023438 525.234375 C 11.398438 507.164062 10.882812 489.625 11.347656 473.070312 C 11.890625 453.695312 13.800781 435.644531 16.367188 419.558594 C 18.9375 403.472656 22.140625 389.386719 25.117188 377.6875 C 28.09375 365.988281 30.792969 356.675781 32.453125 350.160156 C 34.109375 343.644531 34.734375 339.914062 33.671875 339.417969 C 32.613281 338.921875 29.976562 341.710938 26.339844 347.523438 C 22.703125 353.335938 18.039062 362.191406 13.28125 373.765625 C 8.519531 385.339844 3.710938 399.660156 -0.230469 416.28125 C -4.171875 432.898438 -7.199219 451.804688 -8.402344 472.238281 C -9.421875 489.652344 -9.195312 508.140625 -7.5 527.101562 C -7.285156 529.523438 -7.050781 531.90625 -6.792969 534.304688 Z M 13.988281 534.304688 " fill-opacity="1" fill-rule="evenodd"/><path fill="#00892c" d="M 178.460938 386.59375 C 178.636719 386.558594 178.871094 386.625 179.039062 386.882812 C 179.207031 387.140625 179.289062 387.636719 179.328125 387.980469 C 179.414062 388.589844 179.421875 389.382812 179.328125 390.292969 C 179.140625 392.09375 178.601562 394.515625 177.824219 397.402344 C 176.28125 403.144531 173.671875 411.03125 170.539062 420.640625 C 164.351562 439.601562 155.953125 465.648438 149.433594 496.367188 C 146.269531 511.300781 143.625 527.359375 141.804688 544.117188 L 123.125 544.117188 C 125.105469 525.808594 128.445312 508.367188 132.492188 492.378906 C 136.5 476.550781 141.207031 462.128906 146.023438 449.371094 C 150.839844 436.613281 155.75 425.539062 160.246094 416.421875 C 164.816406 407.144531 168.898438 399.957031 172.042969 394.917969 C 173.636719 392.355469 174.941406 390.40625 175.972656 389.019531 C 176.5 388.304688 176.941406 387.792969 177.304688 387.402344 C 177.539062 387.042969 177.816406 386.992188 177.996094 386.882812 C 178.179688 386.773438 178.285156 386.628906 178.460938 386.59375 Z M 178.460938 386.59375 " fill-opacity="1" fill-rule="evenodd"/><path fill="#00892c" d="M 257.742188 408.480469 C 258.722656 408.808594 258.382812 412.796875 257.113281 419.71875 C 255.847656 426.644531 253.671875 436.542969 251.132812 448.761719 C 248.589844 460.980469 245.699219 475.496094 243.507812 491.695312 C 241.671875 505.238281 240.332031 519.960938 240.128906 535.40625 L 224.832031 535.40625 C 225.253906 519.007812 227.117188 503.519531 229.707031 489.480469 C 232.78125 472.785156 236.8125 458.078125 240.757812 445.964844 C 244.703125 433.851562 248.554688 424.363281 251.566406 417.9375 C 254.578125 411.511719 256.761719 408.148438 257.742188 408.480469 Z M 257.742188 408.480469 " fill-opacity="1" fill-rule="evenodd"/><path fill="#00892c" d="M 238.640625 546.371094 C 238.6875 542.941406 238.703125 539.507812 238.640625 536.015625 C 238.59375 533.566406 238.476562 531.082031 238.367188 528.605469 C 237.710938 513.390625 235.902344 498.769531 232.808594 485.390625 C 229.714844 472.007812 225.359375 459.855469 220.054688 449.257812 C 215.207031 439.421875 209.585938 430.925781 203.917969 423.917969 C 198.25 416.90625 192.515625 411.398438 187.457031 407.078125 C 176.015625 399.449219 169.464844 394.21875 170.066406 392.742188 C 170.703125 391.289062 178.527344 393.785156 192.089844 399.609375 C 198.3125 403.246094 205.425781 408.464844 212.585938 415.523438 C 219.742188 422.582031 226.902344 431.53125 233.136719 442.226562 C 239.695312 453.625 245.175781 466.84375 249.050781 481.355469 C 252.929688 495.871094 255.230469 511.65625 255.867188 527.898438 C 255.96875 530.542969 256.007812 533.195312 256.027344 535.800781 C 256.0625 539.371094 256.011719 542.871094 255.921875 546.371094 Z M 238.640625 546.371094 " fill-opacity="1" fill-rule="evenodd"/><path fill="#00892c" d="M 295.488281 546.371094 C 295.859375 542.972656 296.269531 539.570312 296.578125 536.125 C 298.414062 515.714844 298.996094 495.898438 298.46875 477.199219 C 297.859375 455.308594 295.703125 434.917969 292.800781 416.746094 C 289.898438 398.574219 286.28125 382.660156 282.917969 369.445312 C 279.550781 356.234375 276.503906 345.710938 274.632812 338.347656 C 272.757812 330.988281 272.050781 326.773438 273.25 326.214844 C 274.449219 325.65625 277.425781 328.804688 281.535156 335.371094 C 285.644531 341.9375 290.914062 351.941406 296.289062 365.015625 C 301.664062 378.089844 307.097656 394.269531 311.550781 413.042969 C 316.003906 431.816406 319.421875 453.175781 320.78125 476.257812 C 321.933594 495.929688 321.679688 516.816406 319.761719 538.234375 C 319.519531 540.972656 319.257812 543.664062 318.964844 546.371094 Z M 295.488281 546.371094 " fill-opacity="1" fill-rule="evenodd"/><path fill="#00892c" d="M 345.046875 546.371094 C 349.703125 532.003906 354.519531 518.320312 358.945312 505.496094 C 363.71875 491.679688 368.027344 478.792969 371.539062 466.96875 C 373.585938 460.058594 375.375 453.53125 376.824219 447.457031 C 378.277344 441.378906 379.375 435.761719 380.207031 430.617188 C 381.019531 425.53125 381.550781 420.914062 381.894531 416.882812 C 382.242188 412.855469 382.390625 409.425781 382.496094 406.582031 C 382.601562 403.738281 382.703125 401.484375 382.875 399.933594 C 383.050781 398.386719 383.324219 397.535156 383.804688 397.429688 C 384.28125 397.320312 384.957031 397.972656 385.710938 399.390625 C 386.464844 400.808594 387.320312 403.019531 388.109375 405.929688 C 388.898438 408.839844 389.59375 412.464844 390.070312 416.773438 C 390.550781 421.085938 390.761719 426.050781 390.617188 431.542969 C 390.480469 437.097656 390.023438 443.207031 389.144531 449.746094 C 388.265625 456.285156 386.996094 463.285156 385.382812 470.566406 C 382.636719 483.011719 378.960938 496.472656 374.644531 510.621094 C 371.144531 522.097656 367.1875 534.09375 363.253906 546.371094 Z M 345.046875 546.371094 " fill-opacity="1" fill-rule="evenodd"/><path fill="#00892c" d="M 601.253906 546.371094 C 601.152344 543.800781 601.019531 541.257812 600.929688 538.65625 C 600.917969 538.398438 600.9375 538.128906 600.929688 537.871094 C 600.191406 515.890625 599.839844 494.921875 599.421875 475.742188 C 599.007812 456.566406 598.480469 439.183594 597.722656 424.601562 C 596.964844 410.019531 595.988281 398.234375 594.777344 390.074219 C 593.570312 381.910156 592.167969 377.386719 590.722656 377.386719 C 589.28125 377.386719 587.898438 381.882812 586.601562 390.007812 C 585.308594 398.132812 584.078125 409.867188 582.941406 424.40625 C 581.800781 438.945312 580.769531 456.304688 580.125 475.609375 C 579.484375 494.917969 579.253906 516.195312 579.996094 538.585938 C 580.003906 538.851562 579.988281 539.109375 579.996094 539.371094 C 580.074219 541.730469 580.222656 544.035156 580.324219 546.371094 Z M 601.253906 546.371094 " fill-opacity="1" fill-rule="evenodd"/><path fill="#00892c" d="M 546.464844 546.371094 C 546.023438 535.371094 545.085938 524.816406 543.636719 515.148438 C 541.886719 503.433594 539.417969 493.007812 536.683594 484.503906 C 533.945312 476 530.980469 469.402344 528.515625 465.035156 C 526.050781 460.664062 524.128906 458.515625 523.21875 458.886719 C 522.308594 459.257812 522.492188 462.121094 523.308594 466.917969 C 524.128906 471.714844 525.527344 478.464844 526.898438 486.882812 C 528.273438 495.296875 529.597656 505.371094 530.535156 516.671875 C 531.296875 525.847656 531.78125 535.871094 532.105469 546.371094 Z M 546.464844 546.371094 " fill-opacity="1" fill-rule="evenodd"/><path fill="#00892c" d="M 658.976562 368.421875 C 658.433594 368.414062 657.558594 369.089844 656.414062 370.492188 C 655.105469 372.09375 653.4375 374.640625 651.617188 378.066406 C 649.792969 381.496094 647.824219 385.808594 645.945312 391.039062 C 644.070312 396.269531 642.304688 402.425781 640.933594 409.351562 C 639.675781 415.699219 638.78125 422.691406 638.316406 430.222656 C 637.851562 437.753906 637.839844 445.828125 638.371094 454.253906 C 639.15625 466.699219 640.972656 479.925781 643.820312 493.601562 C 646.667969 507.277344 650.535156 521.394531 654.941406 535.675781 C 655.839844 538.585938 656.75 541.433594 657.667969 544.285156 C 658.027344 545.40625 658.394531 546.496094 658.757812 547.609375 L 676.964844 547.609375 C 676.046875 544.746094 675.152344 541.953125 674.238281 539.054688 C 673.355469 536.230469 672.5 533.410156 671.621094 530.550781 C 667.320312 516.535156 663.433594 502.894531 660.339844 489.898438 C 657.242188 476.898438 654.953125 464.535156 653.578125 452.894531 C 652.648438 445.035156 652.09375 437.507812 651.945312 430.492188 C 651.796875 423.480469 652.046875 416.96875 652.542969 410.984375 C 653.617188 397.957031 655.9375 387.527344 657.613281 380.300781 C 658.449219 376.6875 659.09375 373.851562 659.410156 371.851562 C 659.730469 369.855469 659.703125 368.71875 659.195312 368.472656 C 659.128906 368.445312 659.054688 368.421875 658.976562 368.421875 Z M 658.976562 368.421875 " fill-opacity="1" fill-rule="evenodd"/><path fill="#00892c" d="M 451.710938 369.660156 C 451.910156 369.621094 452.175781 369.695312 452.367188 369.988281 C 452.554688 370.277344 452.644531 370.835938 452.691406 371.226562 C 452.789062 371.917969 452.800781 372.808594 452.691406 373.839844 C 452.480469 375.875 451.871094 378.609375 450.996094 381.871094 C 449.25 388.355469 446.304688 397.269531 442.765625 408.121094 C 435.777344 429.542969 426.289062 458.964844 418.921875 493.667969 C 415.347656 510.535156 412.359375 528.675781 410.300781 547.605469 L 389.203125 547.605469 C 391.441406 526.925781 395.210938 507.222656 399.785156 489.160156 C 404.308594 471.277344 409.625 454.984375 415.070312 440.578125 C 420.511719 426.167969 426.058594 413.65625 431.136719 403.355469 C 436.300781 392.875 440.914062 384.753906 444.460938 379.0625 C 446.261719 376.167969 447.738281 373.964844 448.902344 372.402344 C 449.496094 371.59375 449.996094 371.015625 450.40625 370.574219 C 450.671875 370.164062 450.984375 370.109375 451.1875 369.984375 C 451.394531 369.863281 451.515625 369.699219 451.710938 369.660156 Z M 451.710938 369.660156 " fill-opacity="1" fill-rule="evenodd"/><path fill="#00892c" d="M 490.054688 404.226562 C 491.160156 404.597656 490.777344 409.101562 489.34375 416.921875 C 487.914062 424.746094 485.453125 435.925781 482.585938 449.730469 C 479.71875 463.535156 476.449219 479.929688 473.972656 498.230469 C 471.902344 513.527344 470.386719 530.164062 470.15625 547.605469 L 452.878906 547.605469 C 453.351562 529.082031 455.460938 511.585938 458.382812 495.722656 C 461.859375 476.863281 466.410156 460.25 470.867188 446.566406 C 475.320312 432.882812 479.671875 422.164062 483.074219 414.902344 C 486.476562 407.644531 488.945312 403.847656 490.054688 404.222656 Z M 490.054688 404.226562 " fill-opacity="1" fill-rule="evenodd"/><path fill="#00892c" d="M 707.347656 407.730469 C 706.054688 407.730469 704.847656 411.351562 703.664062 417.777344 C 702.484375 424.199219 701.308594 433.445312 700.160156 444.933594 C 699.011719 456.421875 697.917969 470.117188 697.0625 485.410156 C 696.210938 500.699219 695.617188 517.589844 695.953125 535.402344 C 695.964844 535.996094 696 536.566406 696.011719 537.15625 C 696.074219 540.230469 696.183594 543.296875 696.304688 546.324219 L 715 546.324219 C 714.902344 543.160156 714.78125 539.976562 714.707031 536.746094 C 714.695312 536.171875 714.660156 535.628906 714.648438 535.050781 C 714.3125 517.6875 714.332031 501.023438 714.238281 485.816406 C 714.148438 470.613281 713.964844 456.871094 713.421875 445.285156 C 712.878906 433.703125 712.023438 424.320312 710.96875 417.835938 C 709.914062 411.347656 708.636719 407.730469 707.347656 407.730469 Z M 707.347656 407.730469 " fill-opacity="1" fill-rule="evenodd"/><path fill="#00892c" d="M 724.492188 422.152344 C 723.347656 422.507812 723.4375 426.394531 724.21875 433.105469 C 725.003906 439.816406 726.492188 449.371094 728.035156 461.171875 C 729.582031 472.972656 731.144531 487.050781 732.398438 502.753906 C 733.503906 516.589844 734.335938 531.734375 734.960938 547.605469 L 752.402344 547.605469 C 751.683594 531.148438 750.335938 515.375 748.367188 501.011719 C 746.167969 484.949219 743.246094 470.613281 740.082031 458.773438 C 736.917969 446.933594 733.527344 437.589844 730.707031 431.308594 C 727.886719 425.027344 725.640625 421.796875 724.492188 422.152344 Z M 724.492188 422.152344 " fill-opacity="1" fill-rule="evenodd"/><path fill="#00892c" d="M 238.640625 546.371094 C 238.6875 542.941406 238.703125 539.507812 238.640625 536.015625 C 238.59375 533.566406 238.476562 531.082031 238.367188 528.605469 C 237.710938 513.390625 235.902344 498.769531 232.808594 485.390625 C 229.714844 472.007812 225.359375 459.855469 220.054688 449.257812 C 215.207031 439.421875 209.585938 430.925781 203.917969 423.917969 C 198.25 416.90625 192.515625 411.398438 187.457031 407.078125 C 176.015625 399.449219 169.464844 394.21875 170.066406 392.742188 C 170.703125 391.289062 178.527344 393.785156 192.089844 399.609375 C 198.3125 403.246094 205.425781 408.464844 212.585938 415.523438 C 219.742188 422.582031 226.902344 431.53125 233.136719 442.226562 C 239.695312 453.625 245.175781 466.84375 249.050781 481.355469 C 252.929688 495.871094 255.230469 511.65625 255.867188 527.898438 C 255.96875 530.542969 256.007812 533.195312 256.027344 535.800781 C 256.0625 539.371094 256.011719 542.871094 255.921875 546.371094 Z M 238.640625 546.371094 " fill-opacity="1" fill-rule="evenodd"/><path fill="#00892c" d="M 295.488281 546.371094 C 295.859375 542.972656 296.269531 539.570312 296.578125 536.125 C 298.414062 515.714844 298.996094 495.898438 298.46875 477.199219 C 297.859375 455.308594 295.703125 434.917969 292.800781 416.746094 C 289.898438 398.574219 286.28125 382.660156 282.917969 369.445312 C 279.550781 356.234375 276.503906 345.710938 274.632812 338.347656 C 272.757812 330.988281 272.050781 326.773438 273.25 326.214844 C 274.449219 325.65625 277.425781 328.804688 281.535156 335.371094 C 285.644531 341.9375 290.914062 351.941406 296.289062 365.015625 C 301.664062 378.089844 307.097656 394.269531 311.550781 413.042969 C 316.003906 431.816406 319.421875 453.175781 320.78125 476.257812 C 321.933594 495.929688 321.679688 516.816406 319.761719 538.234375 C 319.519531 540.972656 319.257812 543.664062 318.964844 546.371094 Z M 295.488281 546.371094 " fill-opacity="1" fill-rule="evenodd"/><path fill="#00892c" d="M 345.046875 546.371094 C 349.703125 532.003906 354.519531 518.320312 358.945312 505.496094 C 363.71875 491.679688 368.027344 478.792969 371.539062 466.96875 C 373.585938 460.058594 375.375 453.53125 376.824219 447.457031 C 378.277344 441.378906 379.375 435.761719 380.207031 430.617188 C 381.019531 425.53125 381.550781 420.914062 381.894531 416.882812 C 382.242188 412.855469 382.390625 409.425781 382.496094 406.582031 C 382.601562 403.738281 382.703125 401.484375 382.875 399.933594 C 383.050781 398.386719 383.324219 397.535156 383.804688 397.429688 C 384.28125 397.320312 384.957031 397.972656 385.710938 399.390625 C 386.464844 400.808594 387.320312 403.019531 388.109375 405.929688 C 388.898438 408.839844 389.59375 412.464844 390.070312 416.773438 C 390.550781 421.085938 390.761719 426.050781 390.617188 431.542969 C 390.480469 437.097656 390.023438 443.207031 389.144531 449.746094 C 388.265625 456.285156 386.996094 463.285156 385.382812 470.566406 C 382.636719 483.011719 378.960938 496.472656 374.644531 510.621094 C 371.144531 522.097656 367.1875 534.09375 363.253906 546.371094 Z M 345.046875 546.371094 " fill-opacity="1" fill-rule="evenodd"/><path fill="#00892c" d="M 601.253906 546.371094 C 601.152344 543.800781 601.019531 541.257812 600.929688 538.65625 C 600.917969 538.398438 600.9375 538.128906 600.929688 537.871094 C 600.191406 515.890625 599.839844 494.921875 599.421875 475.742188 C 599.007812 456.566406 598.480469 439.183594 597.722656 424.601562 C 596.964844 410.019531 595.988281 398.234375 594.777344 390.074219 C 593.570312 381.910156 592.167969 377.386719 590.722656 377.386719 C 589.28125 377.386719 587.898438 381.882812 586.601562 390.007812 C 585.308594 398.132812 584.078125 409.867188 582.941406 424.40625 C 581.800781 438.945312 580.769531 456.304688 580.125 475.609375 C 579.484375 494.917969 579.253906 516.195312 579.996094 538.585938 C 580.003906 538.851562 579.988281 539.109375 579.996094 539.371094 C 580.074219 541.730469 580.222656 544.035156 580.324219 546.371094 Z M 601.253906 546.371094 " fill-opacity="1" fill-rule="evenodd"/><path fill="#00892c" d="M 546.464844 546.371094 C 546.023438 535.371094 545.085938 524.816406 543.636719 515.148438 C 541.886719 503.433594 539.417969 493.007812 536.683594 484.503906 C 533.945312 476 530.980469 469.402344 528.515625 465.035156 C 526.050781 460.664062 524.128906 458.515625 523.21875 458.886719 C 522.308594 459.257812 522.492188 462.121094 523.308594 466.917969 C 524.128906 471.714844 525.527344 478.464844 526.898438 486.882812 C 528.273438 495.296875 529.597656 505.371094 530.535156 516.671875 C 531.296875 525.847656 531.78125 535.871094 532.105469 546.371094 Z M 546.464844 546.371094 " fill-opacity="1" fill-rule="evenodd"/><path fill="#00892c" d="M 658.976562 368.421875 C 658.433594 368.414062 657.558594 369.089844 656.414062 370.492188 C 655.105469 372.09375 653.4375 374.640625 651.617188 378.066406 C 649.792969 381.496094 647.824219 385.808594 645.945312 391.039062 C 644.070312 396.269531 642.304688 402.425781 640.933594 409.351562 C 639.675781 415.699219 638.78125 422.691406 638.316406 430.222656 C 637.851562 437.753906 637.839844 445.828125 638.371094 454.253906 C 639.15625 466.699219 640.972656 479.925781 643.820312 493.601562 C 646.667969 507.277344 650.535156 521.394531 654.941406 535.675781 C 655.839844 538.585938 656.75 541.433594 657.667969 544.285156 C 658.027344 545.40625 658.394531 546.496094 658.757812 547.609375 L 676.964844 547.609375 C 676.046875 544.746094 675.152344 541.953125 674.238281 539.054688 C 673.355469 536.230469 672.5 533.410156 671.621094 530.550781 C 667.320312 516.535156 663.433594 502.894531 660.339844 489.898438 C 657.242188 476.898438 654.953125 464.535156 653.578125 452.894531 C 652.648438 445.035156 652.09375 437.507812 651.945312 430.492188 C 651.796875 423.480469 652.046875 416.96875 652.542969 410.984375 C 653.617188 397.957031 655.9375 387.527344 657.613281 380.300781 C 658.449219 376.6875 659.09375 373.851562 659.410156 371.851562 C 659.730469 369.855469 659.703125 368.71875 659.195312 368.472656 C 659.128906 368.445312 659.054688 368.421875 658.976562 368.421875 Z M 658.976562 368.421875 " fill-opacity="1" fill-rule="evenodd"/><path fill="#00892c" d="M 451.710938 369.660156 C 451.910156 369.621094 452.175781 369.695312 452.367188 369.988281 C 452.554688 370.277344 452.644531 370.835938 452.691406 371.226562 C 452.789062 371.917969 452.800781 372.808594 452.691406 373.839844 C 452.480469 375.875 451.871094 378.609375 450.996094 381.871094 C 449.25 388.355469 446.304688 397.269531 442.765625 408.121094 C 435.777344 429.542969 426.289062 458.964844 418.921875 493.667969 C 415.347656 510.535156 412.359375 528.675781 410.300781 547.605469 L 389.203125 547.605469 C 391.441406 526.925781 395.210938 507.222656 399.785156 489.160156 C 404.308594 471.277344 409.625 454.984375 415.070312 440.578125 C 420.511719 426.167969 426.058594 413.65625 431.136719 403.355469 C 436.300781 392.875 440.914062 384.753906 444.460938 379.0625 C 446.261719 376.167969 447.738281 373.964844 448.902344 372.402344 C 449.496094 371.59375 449.996094 371.015625 450.40625 370.574219 C 450.671875 370.164062 450.984375 370.109375 451.1875 369.984375 C 451.394531 369.863281 451.515625 369.699219 451.710938 369.660156 Z M 451.710938 369.660156 " fill-opacity="1" fill-rule="evenodd"/><path fill="#00892c" d="M 490.054688 404.226562 C 491.160156 404.597656 490.777344 409.101562 489.34375 416.921875 C 487.914062 424.746094 485.453125 435.925781 482.585938 449.730469 C 479.71875 463.535156 476.449219 479.929688 473.972656 498.230469 C 471.902344 513.527344 470.386719 530.164062 470.15625 547.605469 L 452.878906 547.605469 C 453.351562 529.082031 455.460938 511.585938 458.382812 495.722656 C 461.859375 476.863281 466.410156 460.25 470.867188 446.566406 C 475.320312 432.882812 479.671875 422.164062 483.074219 414.902344 C 486.476562 407.644531 488.945312 403.847656 490.054688 404.222656 Z M 490.054688 404.226562 " fill-opacity="1" fill-rule="evenodd"/><path fill="#00892c" d="M 707.347656 407.730469 C 706.054688 407.730469 704.847656 411.351562 703.664062 417.777344 C 702.484375 424.199219 701.308594 433.445312 700.160156 444.933594 C 699.011719 456.421875 697.917969 470.117188 697.0625 485.410156 C 696.210938 500.699219 695.617188 517.589844 695.953125 535.402344 C 695.964844 535.996094 696 536.566406 696.011719 537.15625 C 696.074219 540.230469 696.183594 543.296875 696.304688 546.324219 L 715 546.324219 C 714.902344 543.160156 714.78125 539.976562 714.707031 536.746094 C 714.695312 536.171875 714.660156 535.628906 714.648438 535.050781 C 714.3125 517.6875 714.332031 501.023438 714.238281 485.816406 C 714.148438 470.613281 713.964844 456.871094 713.421875 445.285156 C 712.878906 433.703125 712.023438 424.320312 710.96875 417.835938 C 709.914062 411.347656 708.636719 407.730469 707.347656 407.730469 Z M 707.347656 407.730469 " fill-opacity="1" fill-rule="evenodd"/><path fill="#00892c" d="M 724.492188 422.152344 C 723.347656 422.507812 723.4375 426.394531 724.21875 433.105469 C 725.003906 439.816406 726.492188 449.371094 728.035156 461.171875 C 729.582031 472.972656 731.144531 487.050781 732.398438 502.753906 C 733.503906 516.589844 734.335938 531.734375 734.960938 547.605469 L 752.402344 547.605469 C 751.683594 531.148438 750.335938 515.375 748.367188 501.011719 C 746.167969 484.949219 743.246094 470.613281 740.082031 458.773438 C 736.917969 446.933594 733.527344 437.589844 730.707031 431.308594 C 727.886719 425.027344 725.640625 421.796875 724.492188 422.152344 Z M 724.492188 422.152344 " fill-opacity="1" fill-rule="evenodd"/><path fill="#00892c" d="M 252.699219 528.898438 C 252.746094 525.375 252.765625 521.851562 252.699219 518.265625 C 252.652344 515.746094 252.53125 513.195312 252.421875 510.652344 C 251.746094 495.027344 249.886719 480.011719 246.710938 466.269531 C 243.53125 452.527344 239.0625 440.046875 233.609375 429.164062 C 228.636719 419.0625 222.863281 410.339844 217.042969 403.140625 C 211.21875 395.945312 205.332031 390.285156 200.136719 385.847656 C 188.390625 378.015625 181.660156 372.640625 182.277344 371.128906 C 182.929688 369.632812 190.96875 372.195312 204.894531 378.179688 C 211.285156 381.914062 218.59375 387.273438 225.941406 394.523438 C 233.292969 401.769531 240.648438 410.960938 247.046875 421.945312 C 253.78125 433.652344 259.410156 447.222656 263.394531 462.128906 C 267.375 477.035156 269.738281 493.246094 270.390625 509.925781 C 270.496094 512.640625 270.539062 515.363281 270.558594 518.039062 C 270.59375 521.707031 270.539062 525.300781 270.445312 528.898438 Z M 252.699219 528.898438 " fill-opacity="1" fill-rule="evenodd"/><path fill="#00892c" d="M 305.519531 528.898438 C 305.976562 524.921875 306.488281 520.941406 306.871094 516.917969 C 309.148438 493.042969 309.871094 469.871094 309.21875 448 C 308.460938 422.402344 305.78125 398.554688 302.179688 377.304688 C 298.578125 356.054688 294.085938 337.4375 289.910156 321.984375 C 285.734375 306.53125 281.949219 294.222656 279.625 285.613281 C 277.300781 277.007812 276.425781 272.078125 277.914062 271.425781 C 279.398438 270.769531 283.097656 274.453125 288.199219 282.128906 C 293.296875 289.808594 299.835938 301.511719 306.511719 316.800781 C 313.183594 332.089844 319.929688 351.011719 325.457031 372.96875 C 330.984375 394.925781 335.226562 419.902344 336.914062 446.894531 C 338.347656 469.90625 338.027344 494.332031 335.652344 519.378906 C 335.347656 522.582031 335.023438 525.730469 334.660156 528.898438 Z M 305.519531 528.898438 " fill-opacity="1" fill-rule="evenodd"/><path fill="#00892c" d="M 361.984375 528.898438 C 366.765625 514.144531 371.710938 500.089844 376.257812 486.921875 C 381.160156 472.734375 385.585938 459.5 389.191406 447.355469 C 391.292969 440.257812 393.128906 433.558594 394.621094 427.320312 C 396.109375 421.082031 397.238281 415.3125 398.089844 410.027344 C 398.925781 404.804688 399.46875 400.058594 399.824219 395.921875 C 400.183594 391.785156 400.332031 388.265625 400.441406 385.34375 C 400.550781 382.425781 400.65625 380.105469 400.832031 378.515625 C 401.011719 376.925781 401.292969 376.050781 401.785156 375.941406 C 402.277344 375.832031 402.96875 376.5 403.746094 377.957031 C 404.519531 379.414062 405.394531 381.683594 406.207031 384.671875 C 407.019531 387.664062 407.734375 391.382812 408.222656 395.808594 C 408.714844 400.238281 408.929688 405.335938 408.78125 410.976562 C 408.644531 416.679688 408.175781 422.957031 407.273438 429.671875 C 406.367188 436.382812 405.0625 443.570312 403.410156 451.046875 C 400.589844 463.832031 396.8125 477.652344 392.378906 492.183594 C 388.785156 503.96875 384.722656 516.289062 380.679688 528.898438 Z M 361.984375 528.898438 " fill-opacity="1" fill-rule="evenodd"/><path fill="#00892c" d="M 582.257812 528.898438 C 582.15625 526.257812 582.015625 523.648438 581.921875 520.972656 C 581.914062 520.707031 581.933594 520.429688 581.921875 520.167969 C 581.164062 497.59375 580.804688 476.0625 580.378906 456.367188 C 579.949219 436.667969 579.410156 418.820312 578.632812 403.847656 C 577.855469 388.875 576.851562 376.769531 575.609375 368.386719 C 574.367188 360.003906 572.925781 355.359375 571.445312 355.359375 C 569.960938 355.359375 568.542969 359.976562 567.210938 368.320312 C 565.878906 376.664062 564.617188 388.714844 563.449219 403.644531 C 562.28125 418.578125 561.21875 436.40625 560.5625 456.230469 C 559.902344 476.058594 559.664062 497.910156 560.425781 520.90625 C 560.4375 521.175781 560.417969 521.445312 560.425781 521.714844 C 560.507812 524.136719 560.65625 526.5 560.761719 528.898438 Z M 582.257812 528.898438 " fill-opacity="1" fill-rule="evenodd"/><path fill="#00892c" d="M 526.003906 528.898438 C 525.550781 517.597656 524.585938 506.757812 523.101562 496.832031 C 521.300781 484.800781 518.769531 474.097656 515.957031 465.363281 C 513.148438 456.628906 510.101562 449.851562 507.570312 445.367188 C 505.039062 440.882812 503.066406 438.675781 502.132812 439.054688 C 501.199219 439.4375 501.382812 442.375 502.226562 447.300781 C 503.066406 452.230469 504.5 459.164062 505.910156 467.804688 C 507.324219 476.449219 508.679688 486.792969 509.644531 498.398438 C 510.425781 507.820312 510.921875 518.117188 511.257812 528.898438 Z M 526.003906 528.898438 " fill-opacity="1" fill-rule="evenodd"/><path fill="#00892c" d="M 684.375 346.152344 C 683.816406 346.144531 682.917969 346.839844 681.742188 348.277344 C 680.398438 349.921875 678.6875 352.539062 676.816406 356.058594 C 674.945312 359.578125 672.921875 364.007812 670.992188 369.378906 C 669.066406 374.75 667.25 381.074219 665.84375 388.183594 C 664.554688 394.703125 663.632812 401.882812 663.15625 409.617188 C 662.679688 417.351562 662.667969 425.644531 663.210938 434.300781 C 664.023438 447.078125 665.886719 460.660156 668.808594 474.707031 C 671.734375 488.753906 675.703125 503.25 680.230469 517.914062 C 681.152344 520.902344 682.085938 523.828125 683.03125 526.757812 C 683.398438 527.910156 683.777344 529.027344 684.148438 530.171875 L 702.847656 530.171875 C 701.90625 527.230469 700.984375 524.363281 700.046875 521.382812 C 699.140625 518.484375 698.261719 515.585938 697.359375 512.652344 C 692.941406 498.257812 688.953125 484.25 685.773438 470.902344 C 682.59375 457.550781 680.242188 444.855469 678.832031 432.898438 C 677.875 424.828125 677.304688 417.097656 677.152344 409.898438 C 677 402.695312 677.257812 396.007812 677.765625 389.859375 C 678.867188 376.484375 681.253906 365.773438 682.972656 358.351562 C 683.832031 354.640625 684.496094 351.726562 684.820312 349.675781 C 685.148438 347.628906 685.117188 346.457031 684.597656 346.207031 C 684.53125 346.175781 684.453125 346.152344 684.375 346.152344 Z M 684.375 346.152344 " fill-opacity="1" fill-rule="evenodd"/><path fill="#00892c" d="M 593.808594 347.425781 C 593.605469 347.386719 593.332031 347.460938 593.136719 347.761719 C 592.941406 348.058594 592.847656 348.632812 592.800781 349.035156 C 592.699219 349.742188 592.691406 350.660156 592.800781 351.71875 C 593.015625 353.808594 593.644531 356.617188 594.542969 359.964844 C 596.335938 366.625 599.359375 375.777344 602.996094 386.925781 C 610.171875 408.921875 619.917969 439.136719 627.480469 474.777344 C 631.152344 492.101562 634.222656 510.730469 636.335938 530.171875 L 658 530.171875 C 655.703125 508.929688 651.832031 488.699219 647.132812 470.148438 C 642.488281 451.785156 637.027344 435.054688 631.4375 420.257812 C 625.847656 405.460938 620.152344 392.609375 614.9375 382.03125 C 609.632812 371.269531 604.898438 362.929688 601.253906 357.085938 C 599.402344 354.113281 597.886719 351.851562 596.691406 350.246094 C 596.082031 349.414062 595.566406 348.820312 595.148438 348.367188 C 594.875 347.949219 594.554688 347.890625 594.34375 347.761719 C 594.132812 347.636719 594.007812 347.46875 593.808594 347.429688 Z M 593.808594 347.425781 " fill-opacity="1" fill-rule="evenodd"/><path fill="#00892c" d="M 468.074219 382.914062 C 469.214844 383.296875 468.816406 387.921875 467.347656 395.953125 C 465.875 403.988281 463.351562 415.46875 460.40625 429.648438 C 457.460938 443.824219 454.105469 460.660156 451.558594 479.457031 C 449.433594 495.164062 447.878906 512.246094 447.640625 530.164062 L 429.894531 530.164062 C 430.386719 511.140625 432.550781 493.171875 435.550781 476.882812 C 439.121094 457.515625 443.792969 440.453125 448.371094 426.402344 C 452.945312 412.347656 457.414062 401.339844 460.910156 393.882812 C 464.402344 386.425781 466.9375 382.53125 468.074219 382.914062 Z M 468.074219 382.914062 " fill-opacity="1" fill-rule="evenodd"/><path fill="#00892c" d="M 734.050781 386.523438 C 732.726562 386.523438 731.484375 390.246094 730.273438 396.839844 C 729.058594 403.4375 727.851562 412.933594 726.671875 424.730469 C 725.492188 436.527344 724.371094 450.59375 723.492188 466.296875 C 722.617188 482 722.007812 499.347656 722.351562 517.640625 C 722.363281 518.246094 722.398438 518.832031 722.414062 519.4375 C 722.476562 522.597656 722.589844 525.746094 722.714844 528.855469 L 741.910156 528.855469 C 741.808594 525.605469 741.6875 522.335938 741.609375 519.019531 C 741.597656 518.429688 741.5625 517.871094 741.550781 517.28125 C 741.207031 499.445312 741.226562 482.332031 741.132812 466.71875 C 741.035156 451.101562 740.847656 436.988281 740.292969 425.089844 C 739.734375 413.195312 738.855469 403.5625 737.773438 396.902344 C 736.6875 390.242188 735.375 386.523438 734.050781 386.523438 Z M 734.050781 386.523438 " fill-opacity="1" fill-rule="evenodd"/><path fill="#00892c" d="M 751.652344 401.328125 C 750.476562 401.695312 750.566406 405.6875 751.371094 412.578125 C 752.179688 419.472656 753.703125 429.28125 755.292969 441.402344 C 756.878906 453.523438 758.480469 467.976562 759.769531 484.105469 C 760.90625 498.3125 761.761719 513.863281 762.402344 530.164062 L 780.316406 530.164062 C 779.578125 513.261719 778.191406 497.0625 776.171875 482.3125 C 773.914062 465.820312 770.914062 451.097656 767.664062 438.9375 C 764.414062 426.78125 760.929688 417.179688 758.035156 410.730469 C 755.140625 404.28125 752.832031 400.964844 751.652344 401.328125 Z M 751.652344 401.328125 " fill-opacity="1" fill-rule="evenodd"/><path fill="#00892c" d="M 287.746094 534.304688 C 287.785156 531.265625 287.800781 528.230469 287.746094 525.136719 C 287.703125 522.96875 287.597656 520.769531 287.503906 518.578125 C 286.921875 505.109375 285.320312 492.167969 282.582031 480.320312 C 279.84375 468.472656 275.988281 457.71875 271.289062 448.335938 C 267 439.628906 262.023438 432.105469 257.007812 425.902344 C 251.988281 419.699219 246.914062 414.824219 242.433594 410.996094 C 232.308594 404.242188 226.511719 399.613281 227.042969 398.308594 C 227.605469 397.019531 234.53125 399.230469 246.535156 404.386719 C 252.046875 407.605469 258.34375 412.226562 264.679688 418.472656 C 271.015625 424.722656 277.355469 432.644531 282.871094 442.113281 C 288.675781 452.203125 293.527344 463.902344 296.960938 476.75 C 300.394531 489.597656 302.429688 503.570312 302.992188 517.949219 C 303.085938 520.289062 303.121094 522.636719 303.136719 524.945312 C 303.167969 528.105469 303.121094 531.203125 303.039062 534.300781 L 287.746094 534.300781 Z M 287.746094 534.304688 " fill-opacity="1" fill-rule="evenodd"/><path fill="#00892c" d="M 339.8125 534.304688 C 340.140625 531.296875 340.503906 528.28125 340.777344 525.234375 C 342.402344 507.164062 342.917969 489.625 342.449219 473.070312 C 341.910156 453.695312 340 435.644531 337.433594 419.558594 C 334.863281 403.472656 331.660156 389.386719 328.683594 377.6875 C 325.707031 365.988281 323.007812 356.675781 321.347656 350.160156 C 319.691406 343.644531 319.066406 339.914062 320.125 339.417969 C 321.1875 338.921875 323.824219 341.710938 327.460938 347.523438 C 331.097656 353.335938 335.761719 362.191406 340.519531 373.765625 C 345.28125 385.339844 350.089844 399.660156 354.03125 416.28125 C 357.972656 432.898438 361 451.804688 362.203125 472.238281 C 363.222656 489.652344 362.996094 508.140625 361.300781 527.101562 C 361.082031 529.523438 360.851562 531.90625 360.59375 534.304688 Z M 339.8125 534.304688 " fill-opacity="1" fill-rule="evenodd"/><path fill="#00892c" d="M 381.9375 534.304688 C 386.0625 521.585938 390.324219 509.472656 394.242188 498.121094 C 398.46875 485.890625 402.285156 474.484375 405.390625 464.015625 C 407.203125 457.898438 408.785156 452.121094 410.070312 446.746094 C 411.355469 441.367188 412.328125 436.394531 413.0625 431.835938 C 413.78125 427.335938 414.25 423.246094 414.558594 419.679688 C 414.863281 416.113281 414.996094 413.078125 415.089844 410.5625 C 415.183594 408.046875 415.273438 406.046875 415.425781 404.675781 C 415.582031 403.308594 415.824219 402.554688 416.246094 402.457031 C 416.671875 402.363281 417.269531 402.9375 417.9375 404.195312 C 418.605469 405.449219 419.359375 407.40625 420.058594 409.984375 C 420.757812 412.5625 421.375 415.765625 421.796875 419.582031 C 422.21875 423.398438 422.40625 427.792969 422.277344 432.65625 C 422.160156 437.574219 421.753906 442.984375 420.976562 448.769531 C 420.199219 454.558594 419.070312 460.753906 417.644531 467.199219 C 415.214844 478.214844 411.960938 490.132812 408.140625 502.65625 C 405.042969 512.8125 401.539062 523.433594 398.054688 534.300781 L 381.9375 534.300781 Z M 381.9375 534.304688 " fill-opacity="1" fill-rule="evenodd"/><path fill="#00892c" d="M 573.117188 534.304688 C 573.027344 532.027344 572.910156 529.777344 572.828125 527.472656 C 572.820312 527.246094 572.835938 527.007812 572.828125 526.777344 C 572.175781 507.324219 571.867188 488.757812 571.496094 471.78125 C 571.128906 454.804688 570.664062 439.417969 569.992188 426.511719 C 569.320312 413.605469 568.457031 403.171875 567.386719 395.945312 C 566.316406 388.722656 565.074219 384.714844 563.796875 384.714844 C 562.519531 384.714844 561.296875 388.695312 560.148438 395.886719 C 559 403.082031 557.914062 413.46875 556.90625 426.339844 C 555.898438 439.207031 554.984375 454.578125 554.414062 471.667969 C 553.847656 488.753906 553.640625 507.589844 554.300781 527.414062 C 554.308594 527.648438 554.292969 527.878906 554.300781 528.109375 C 554.371094 530.195312 554.5 532.234375 554.589844 534.304688 L 573.121094 534.304688 Z M 573.117188 534.304688 " fill-opacity="1" fill-rule="evenodd"/><path fill="#00892c" d="M 524.625 534.304688 C 524.234375 524.566406 523.40625 515.222656 522.125 506.664062 C 520.570312 496.292969 518.390625 487.066406 515.964844 479.539062 C 513.542969 472.007812 510.917969 466.167969 508.738281 462.300781 C 506.554688 458.433594 504.855469 456.53125 504.050781 456.859375 C 503.242188 457.1875 503.402344 459.722656 504.128906 463.96875 C 504.851562 468.21875 506.089844 474.191406 507.304688 481.644531 C 508.523438 489.09375 509.691406 498.007812 510.523438 508.011719 C 511.199219 516.132812 511.625 525.007812 511.914062 534.304688 Z M 524.625 534.304688 " fill-opacity="1" fill-rule="evenodd"/><path fill="#00892c" d="M 659.832031 376.777344 C 659.351562 376.769531 658.578125 377.367188 657.5625 378.609375 C 656.402344 380.027344 654.929688 382.28125 653.316406 385.3125 C 651.703125 388.347656 649.957031 392.167969 648.296875 396.796875 C 646.636719 401.425781 645.070312 406.878906 643.859375 413.003906 C 642.746094 418.625 641.953125 424.816406 641.542969 431.480469 C 641.128906 438.148438 641.121094 445.296875 641.589844 452.757812 C 642.289062 463.769531 643.894531 475.480469 646.414062 487.585938 C 648.9375 499.695312 652.359375 512.191406 656.257812 524.832031 C 657.054688 527.40625 657.859375 529.929688 658.671875 532.453125 C 658.988281 533.445312 659.316406 534.410156 659.636719 535.394531 L 675.753906 535.394531 C 674.941406 532.863281 674.148438 530.390625 673.339844 527.820312 C 672.558594 525.324219 671.800781 522.824219 671.023438 520.296875 C 667.214844 507.886719 663.777344 495.816406 661.035156 484.308594 C 658.296875 472.796875 656.269531 461.855469 655.050781 451.550781 C 654.226562 444.59375 653.738281 437.929688 653.605469 431.722656 C 653.472656 425.515625 653.695312 419.753906 654.136719 414.453125 C 655.085938 402.921875 657.140625 393.691406 658.625 387.292969 C 659.363281 384.09375 659.933594 381.582031 660.214844 379.816406 C 660.496094 378.046875 660.472656 377.039062 660.023438 376.824219 C 659.964844 376.796875 659.898438 376.777344 659.828125 376.777344 Z M 659.832031 376.777344 " fill-opacity="1" fill-rule="evenodd"/><path fill="#00892c" d="M 581.769531 377.875 C 581.597656 377.839844 581.359375 377.90625 581.191406 378.164062 C 581.023438 378.421875 580.945312 378.917969 580.902344 379.261719 C 580.816406 379.871094 580.808594 380.664062 580.902344 381.574219 C 581.089844 383.375 581.628906 385.796875 582.40625 388.683594 C 583.953125 394.425781 586.558594 402.3125 589.691406 411.921875 C 595.878906 430.882812 604.277344 456.929688 610.796875 487.648438 C 613.960938 502.582031 616.609375 518.640625 618.429688 535.394531 L 637.105469 535.394531 C 635.125 517.089844 631.789062 499.648438 627.738281 483.660156 C 623.734375 467.828125 619.027344 453.40625 614.210938 440.652344 C 609.390625 427.894531 604.480469 416.820312 599.984375 407.703125 C 595.414062 398.425781 591.332031 391.234375 588.191406 386.195312 C 586.597656 383.632812 585.289062 381.6875 584.257812 380.300781 C 583.730469 379.585938 583.289062 379.074219 582.929688 378.683594 C 582.695312 378.320312 582.417969 378.269531 582.234375 378.160156 C 582.050781 378.054688 581.945312 377.90625 581.773438 377.871094 Z M 581.769531 377.875 " fill-opacity="1" fill-rule="evenodd"/><path fill="#00892c" d="M 474.667969 408.480469 C 475.648438 408.808594 475.308594 412.796875 474.039062 419.71875 C 472.773438 426.644531 470.597656 436.542969 468.058594 448.761719 C 465.519531 460.980469 462.628906 475.496094 460.433594 491.695312 C 458.601562 505.238281 457.257812 519.960938 457.054688 535.40625 L 441.757812 535.40625 C 442.179688 519.007812 444.046875 503.519531 446.632812 489.480469 C 449.710938 472.785156 453.738281 458.078125 457.683594 445.964844 C 461.628906 433.851562 465.480469 424.363281 468.492188 417.9375 C 471.503906 411.511719 473.6875 408.148438 474.667969 408.480469 Z M 474.667969 408.480469 " fill-opacity="1" fill-rule="evenodd"/><path fill="#00892c" d="M 702.652344 411.585938 C 701.511719 411.585938 700.441406 414.792969 699.394531 420.476562 C 698.351562 426.160156 697.308594 434.347656 696.292969 444.519531 C 695.277344 454.6875 694.308594 466.8125 693.550781 480.347656 C 692.796875 493.882812 692.273438 508.835938 692.570312 524.601562 C 692.578125 525.125 692.609375 525.632812 692.621094 526.152344 C 692.675781 528.875 692.773438 531.589844 692.878906 534.269531 L 709.429688 534.269531 C 709.339844 531.46875 709.234375 528.648438 709.167969 525.792969 C 709.160156 525.28125 709.128906 524.804688 709.117188 524.292969 C 708.820312 508.917969 708.835938 494.167969 708.757812 480.707031 C 708.675781 467.25 708.511719 455.082031 708.03125 444.828125 C 707.550781 434.570312 706.792969 426.269531 705.859375 420.527344 C 704.925781 414.785156 703.796875 411.582031 702.652344 411.582031 Z M 702.652344 411.585938 " fill-opacity="1" fill-rule="evenodd"/><path fill="#00892c" d="M 717.828125 424.347656 C 716.816406 424.664062 716.894531 428.105469 717.589844 434.046875 C 718.28125 439.988281 719.597656 448.445312 720.964844 458.890625 C 722.332031 469.335938 723.714844 481.796875 724.828125 495.699219 C 725.804688 507.945312 726.542969 521.351562 727.09375 535.402344 L 742.535156 535.402344 C 741.898438 520.832031 740.707031 506.871094 738.964844 494.15625 C 737.019531 479.9375 734.429688 467.25 731.628906 456.769531 C 728.828125 446.285156 725.824219 438.011719 723.332031 432.453125 C 720.835938 426.894531 718.84375 424.035156 717.828125 424.347656 Z M 717.828125 424.347656 " fill-opacity="1" fill-rule="evenodd"/><path fill="#00892c" d="M 485.222656 534.304688 C 485.546875 531.296875 485.914062 528.28125 486.1875 525.234375 C 487.808594 507.164062 488.324219 489.625 487.859375 473.070312 C 487.320312 453.695312 485.410156 435.644531 482.839844 419.558594 C 480.273438 403.472656 477.070312 389.386719 474.089844 377.6875 C 471.113281 365.988281 468.414062 356.675781 466.757812 350.160156 C 465.101562 343.644531 464.472656 339.914062 465.535156 339.417969 C 466.597656 338.921875 469.234375 341.710938 472.867188 347.523438 C 476.503906 353.335938 481.167969 362.191406 485.929688 373.765625 C 490.6875 385.339844 495.5 399.660156 499.4375 416.28125 C 503.378906 432.898438 506.40625 451.804688 507.609375 472.238281 C 508.628906 489.652344 508.402344 508.140625 506.710938 527.101562 C 506.492188 529.523438 506.261719 531.90625 506 534.304688 Z M 485.222656 534.304688 " fill-opacity="1" fill-rule="evenodd"/><path fill="#00892c" d="M 547.074219 376.777344 C 546.597656 376.769531 545.820312 377.367188 544.808594 378.609375 C 543.648438 380.027344 542.175781 382.28125 540.5625 385.3125 C 538.949219 388.347656 537.203125 392.167969 535.542969 396.796875 C 533.882812 401.425781 532.316406 406.878906 531.105469 413.003906 C 529.992188 418.625 529.199219 424.816406 528.789062 431.480469 C 528.375 438.148438 528.367188 445.296875 528.835938 452.757812 C 529.53125 463.769531 531.140625 475.480469 533.660156 487.585938 C 536.179688 499.695312 539.605469 512.191406 543.503906 524.832031 C 544.300781 527.40625 545.105469 529.929688 545.917969 532.453125 C 546.234375 533.445312 546.5625 534.410156 546.882812 535.394531 L 563 535.394531 C 562.1875 532.863281 561.394531 530.390625 560.585938 527.820312 C 559.804688 525.324219 559.046875 522.824219 558.269531 520.296875 C 554.460938 507.886719 551.023438 495.816406 548.28125 484.308594 C 545.542969 472.796875 543.515625 461.855469 542.296875 451.550781 C 541.472656 444.59375 540.980469 437.929688 540.851562 431.722656 C 540.71875 425.515625 540.941406 419.753906 541.382812 414.453125 C 542.328125 402.921875 544.386719 393.691406 545.867188 387.292969 C 546.609375 384.09375 547.179688 381.582031 547.460938 379.816406 C 547.742188 378.046875 547.71875 377.039062 547.269531 376.824219 C 547.210938 376.796875 547.144531 376.777344 547.074219 376.777344 Z M 547.074219 376.777344 " fill-opacity="1" fill-rule="evenodd"/><path fill="#00892c" d="M 701.765625 386.59375 C 701.9375 386.558594 702.171875 386.625 702.34375 386.882812 C 702.511719 387.140625 702.589844 387.636719 702.632812 387.980469 C 702.71875 388.589844 702.726562 389.382812 702.632812 390.292969 C 702.445312 392.09375 701.90625 394.515625 701.128906 397.402344 C 699.582031 403.144531 696.976562 411.03125 693.84375 420.640625 C 687.65625 439.601562 679.257812 465.648438 672.738281 496.367188 C 669.574219 511.300781 666.925781 527.359375 665.105469 544.117188 L 646.429688 544.117188 C 648.410156 525.808594 651.746094 508.367188 655.796875 492.378906 C 659.800781 476.550781 664.507812 462.128906 669.324219 449.371094 C 674.144531 436.613281 679.054688 425.539062 683.550781 416.421875 C 688.121094 407.144531 692.203125 399.957031 695.34375 394.917969 C 696.9375 392.355469 698.246094 390.40625 699.277344 389.019531 C 699.804688 388.304688 700.246094 387.792969 700.605469 387.402344 C 700.839844 387.042969 701.117188 386.992188 701.300781 386.882812 C 701.480469 386.773438 701.589844 386.628906 701.761719 386.59375 Z M 701.765625 386.59375 " fill-opacity="1" fill-rule="evenodd"/><path fill="#00892c" d="M 781.042969 408.480469 C 782.027344 408.808594 781.683594 412.796875 780.417969 419.71875 C 779.148438 426.644531 776.972656 436.542969 774.433594 448.761719 C 771.894531 460.980469 769.003906 475.496094 766.808594 491.695312 C 764.976562 505.238281 763.636719 519.960938 763.433594 535.40625 L 748.136719 535.40625 C 748.554688 519.007812 750.421875 503.519531 753.007812 489.480469 C 756.085938 472.785156 760.113281 458.078125 764.058594 445.964844 C 768.003906 433.851562 771.855469 424.363281 774.867188 417.9375 C 777.878906 411.511719 780.0625 408.148438 781.042969 408.480469 Z M 781.042969 408.480469 " fill-opacity="1" fill-rule="evenodd"/><path fill="#00892c" d="M 626.53125 406.351562 C 625.390625 406.351562 624.316406 409.558594 623.273438 415.246094 C 622.226562 420.929688 621.1875 429.117188 620.171875 439.285156 C 619.152344 449.457031 618.183594 461.582031 617.429688 475.117188 C 616.671875 488.648438 616.148438 503.601562 616.445312 519.371094 C 616.457031 519.894531 616.488281 520.398438 616.5 520.921875 C 616.554688 523.644531 616.648438 526.359375 616.757812 529.039062 L 633.304688 529.039062 C 633.21875 526.234375 633.113281 523.417969 633.046875 520.558594 C 633.035156 520.050781 633.003906 519.570312 632.996094 519.0625 C 632.699219 503.6875 632.714844 488.9375 632.632812 475.476562 C 632.550781 462.015625 632.386719 449.851562 631.910156 439.59375 C 631.429688 429.339844 630.671875 421.035156 629.738281 415.296875 C 628.800781 409.554688 627.671875 406.351562 626.53125 406.351562 Z M 626.53125 406.351562 " fill-opacity="1" fill-rule="evenodd"/><path fill="#00892c" d="M 512.625 417.375 C 511.609375 417.6875 511.6875 421.128906 512.382812 427.070312 C 513.078125 433.011719 514.394531 441.46875 515.761719 451.914062 C 517.128906 462.359375 518.511719 474.824219 519.621094 488.722656 C 520.601562 500.972656 521.335938 514.375 521.890625 528.425781 L 537.332031 528.425781 C 536.695312 513.855469 535.5 499.894531 533.761719 487.179688 C 531.8125 472.960938 529.226562 460.273438 526.425781 449.792969 C 523.625 439.3125 520.621094 431.039062 518.125 425.476562 C 515.628906 419.917969 513.640625 417.058594 512.625 417.375 Z M 512.625 417.375 " fill-opacity="1" fill-rule="evenodd"/></svg>